# 3ds Max Wavefront OBJ Exporter v0.97b - (c)2007 guruware
# File Created: 05.01.2017 21:09:00

mtllib arrow.mtl

#
# object Donut001
#

v  -60.0638 12.5268 14.1364
v  -61.6948 12.5268 0.0000
v  -86.1009 12.5268 0.0000
v  -55.4187 12.5268 27.1184
v  -48.1315 12.5268 38.5741
v  -2.3169 12.5268 85.8335
v  -83.8246 12.5268 19.7286
v  -77.3420 12.5268 37.8462
v  -53.8337 12.5268 67.1720
v  -67.1719 12.5268 53.8337
v  -37.8462 12.5268 77.3420
v  -19.7286 12.5268 83.8246
v  -38.5741 12.5268 48.1315
v  -27.1184 12.5268 55.4187
v  -14.1364 12.5268 60.0638
v  43.8426 12.5268 73.9184
v  0.4472 12.5268 101.6625
v  -2.1699 12.5268 61.4445
v  0.4472 12.5268 46.1332
v  -61.6948 0.0000 0.0000
v  -86.1009 0.0000 0.0000
v  -83.8246 0.0000 19.7286
v  -77.3420 0.0000 37.8462
v  -67.1719 0.0000 53.8337
v  -53.8337 0.0000 67.1720
v  -37.8462 0.0000 77.3420
v  -19.7286 0.0000 83.8246
v  -2.3169 0.0000 85.8335
v  43.8426 0.0000 73.9184
v  0.4472 0.0000 101.6625
v  -2.1699 0.0000 61.4445
v  0.4472 0.0000 46.1332
v  -14.1364 0.0000 60.0638
v  -27.1184 0.0000 55.4187
v  -38.5741 0.0000 48.1315
v  -48.1315 0.0000 38.5741
v  -55.4187 0.0000 27.1184
v  -60.0638 0.0000 14.1364
# 38 vertices

vn 0.0000 1.0000 -0.0000
vn -0.0000 0.0000 -1.0000
vn -0.9934 0.0000 0.1146
vn -0.9415 0.0000 0.3369
vn -0.8438 0.0000 0.5367
vn -0.7071 0.0000 0.7071
vn -0.5367 0.0000 0.8438
vn -0.3369 0.0000 0.9415
vn -0.1146 0.0000 0.9934
vn 0.5387 0.0000 0.8425
vn -0.9857 0.0000 -0.1685
vn 0.3369 0.0000 -0.9415
vn 0.5367 0.0000 -0.8438
vn 0.7071 0.0000 -0.7071
vn 0.8438 0.0000 -0.5367
vn 0.9415 0.0000 -0.3369
vn 0.9934 0.0000 -0.1146
vn 0.1146 0.0000 -0.9934
vn -0.9851 0.0000 0.1720
vn 0.5392 0.0000 -0.8422
vn 0.0000 -1.0000 -0.0000
# 21 vertex normals

g Donut001
usemtl wire_225198087
s 1
f 1//1 2//1 3//1 4//1 
f 5//1 4//1 3//1 6//1 
f 3//1 7//1 8//1 9//1 
f 8//1 10//1 9//1 
f 9//1 11//1 12//1 6//1 
f 3//1 9//1 6//1 
f 13//1 5//1 6//1 14//1 
f 15//1 14//1 6//1 16//1 
f 6//1 17//1 16//1 
f 18//1 15//1 16//1 19//1 
s off
f 20//2 21//2 3//2 2//2 
f 21//3 22//3 7//3 3//3 
f 22//4 23//4 8//4 7//4 
f 23//5 24//5 10//5 8//5 
f 24//6 25//6 9//6 10//6 
f 25//7 26//7 11//7 9//7 
f 26//8 27//8 12//8 11//8 
f 28//9 6//9 12//9 27//9 
f 29//10 16//10 17//10 30//10 
f 31//11 18//11 19//11 32//11 
f 33//12 34//12 14//12 15//12 
f 34//13 35//13 13//13 14//13 
f 35//14 36//14 5//14 13//14 
f 36//15 37//15 4//15 5//15 
f 37//16 38//16 1//16 4//16 
f 38//17 20//17 2//17 1//17 
f 33//18 15//18 18//18 31//18 
f 30//19 17//19 6//19 28//19 
f 32//20 19//20 16//20 29//20 
f 31//21 32//21 29//21 33//21 
f 29//21 30//21 28//21 26//21 
f 28//21 27//21 26//21 
f 33//21 29//21 26//21 34//21 
f 35//21 34//21 26//21 36//21 
f 37//21 36//21 26//21 22//21 
f 26//21 25//21 24//21 22//21 
f 24//21 23//21 22//21 
f 38//21 37//21 22//21 20//21 
f 20//21 22//21 21//21 
# 33 polygons - 6 triangles

#
# object Donut002
#

v  60.0638 12.5268 -14.1364
v  61.6948 12.5268 -0.0000
v  86.1009 12.5268 -0.0000
v  55.4187 12.5268 -27.1184
v  48.1315 12.5268 -38.5741
v  2.3169 12.5268 -85.8335
v  83.8246 12.5268 -19.7286
v  77.3420 12.5268 -37.8462
v  53.8337 12.5268 -67.1720
v  67.1719 12.5268 -53.8337
v  37.8462 12.5268 -77.3420
v  19.7286 12.5268 -83.8246
v  38.5740 12.5268 -48.1315
v  27.1184 12.5268 -55.4187
v  14.1364 12.5268 -60.0638
v  -43.8426 12.5268 -73.9184
v  -0.4472 12.5268 -101.6625
v  2.1699 12.5268 -61.4445
v  -0.4472 12.5268 -46.1332
v  61.6948 0.0000 -0.0000
v  86.1009 0.0000 -0.0000
v  83.8246 0.0000 -19.7286
v  77.3420 0.0000 -37.8462
v  67.1719 0.0000 -53.8337
v  53.8337 0.0000 -67.1720
v  37.8462 0.0000 -77.3420
v  19.7286 0.0000 -83.8246
v  2.3169 0.0000 -85.8335
v  -43.8426 0.0000 -73.9184
v  -0.4472 0.0000 -101.6625
v  2.1699 0.0000 -61.4445
v  -0.4472 0.0000 -46.1332
v  14.1364 0.0000 -60.0638
v  27.1184 0.0000 -55.4187
v  38.5740 0.0000 -48.1315
v  48.1315 0.0000 -38.5741
v  55.4187 0.0000 -27.1184
v  60.0638 0.0000 -14.1364
# 38 vertices

vn 0.0000 1.0000 -0.0000
vn 0.0000 0.0000 1.0000
vn 0.9934 0.0000 -0.1146
vn 0.9415 0.0000 -0.3369
vn 0.8438 0.0000 -0.5367
vn 0.7071 0.0000 -0.7071
vn 0.5367 0.0000 -0.8438
vn 0.3369 0.0000 -0.9415
vn 0.1146 0.0000 -0.9934
vn -0.5387 0.0000 -0.8425
vn 0.9857 0.0000 0.1685
vn -0.3369 0.0000 0.9415
vn -0.5367 0.0000 0.8438
vn -0.7071 0.0000 0.7071
vn -0.8438 0.0000 0.5367
vn -0.9415 0.0000 0.3369
vn -0.9934 0.0000 0.1146
vn -0.1146 0.0000 0.9934
vn 0.9851 0.0000 -0.1720
vn -0.5392 0.0000 0.8422
vn 0.0000 -1.0000 -0.0000
# 21 vertex normals

g Donut002
usemtl wire_225198087
s 1
f 39//22 40//22 41//22 42//22 
f 43//22 42//22 41//22 44//22 
f 41//22 45//22 46//22 47//22 
f 46//22 48//22 47//22 
f 47//22 49//22 50//22 44//22 
f 41//22 47//22 44//22 
f 51//22 43//22 44//22 52//22 
f 53//22 52//22 44//22 54//22 
f 44//22 55//22 54//22 
f 56//22 53//22 54//22 57//22 
s off
f 58//23 59//23 41//23 40//23 
f 59//24 60//24 45//24 41//24 
f 60//25 61//25 46//25 45//25 
f 61//26 62//26 48//26 46//26 
f 62//27 63//27 47//27 48//27 
f 63//28 64//28 49//28 47//28 
f 64//29 65//29 50//29 49//29 
f 66//30 44//30 50//30 65//30 
f 67//31 54//31 55//31 68//31 
f 69//32 56//32 57//32 70//32 
f 71//33 72//33 52//33 53//33 
f 72//34 73//34 51//34 52//34 
f 73//35 74//35 43//35 51//35 
f 74//36 75//36 42//36 43//36 
f 75//37 76//37 39//37 42//37 
f 76//38 58//38 40//38 39//38 
f 71//39 53//39 56//39 69//39 
f 68//40 55//40 44//40 66//40 
f 70//41 57//41 54//41 67//41 
f 69//42 70//42 67//42 71//42 
f 67//42 68//42 66//42 64//42 
f 66//42 65//42 64//42 
f 71//42 67//42 64//42 72//42 
f 73//42 72//42 64//42 74//42 
f 75//42 74//42 64//42 60//42 
f 64//42 63//42 62//42 60//42 
f 62//42 61//42 60//42 
f 76//42 75//42 60//42 58//42 
f 58//42 60//42 59//42 
# 33 polygons - 6 triangles

